<?xml version="1.0" encoding="UTF-8" standalone="no"?>
<svg
   width="16"
   height="16"
   viewBox="0 0 24 24"
   fill="#169"
   version="1.1"
   id="svg6"
   sodipodi:docname="file-rss.svg"
   inkscape:version="1.2.2 (b0a8486541, 2022-12-01)"
   xmlns:inkscape="http://www.inkscape.org/namespaces/inkscape"
   xmlns:sodipodi="http://sodipodi.sourceforge.net/DTD/sodipodi-0.dtd"
   xmlns="http://www.w3.org/2000/svg"
   xmlns:svg="http://www.w3.org/2000/svg">
  <defs
     id="defs10" />
  <sodipodi:namedview
     id="namedview8"
     pagecolor="#ffffff"
     bordercolor="#000000"
     borderopacity="0.25"
     inkscape:showpageshadow="2"
     inkscape:pageopacity="0.0"
     inkscape:pagecheckerboard="0"
     inkscape:deskcolor="#d1d1d1"
     showgrid="false"
     inkscape:zoom="63.6875"
     inkscape:cx="3.7605496"
     inkscape:cy="8.0157017"
     inkscape:window-width="2680"
     inkscape:window-height="1443"
     inkscape:window-x="4"
     inkscape:window-y="65"
     inkscape:window-maximized="1"
     inkscape:current-layer="svg6" />
  <path
     stroke="none"
     d="M0 0h24v24H0z"
     fill="none"
     id="path2" />
  <path
     d="M12 2l.117 .007a1 1 0 0 1 .876 .876l.007 .117v4l.005 .15a2 2 0 0 0 1.838 1.844l.157 .006h4l.117 .007a1 1 0 0 1 .876 .876l.007 .117v9a3 3 0 0 1 -2.824 2.995l-.176 .005h-10a3 3 0 0 1 -2.995 -2.824l-.005 -.176v-14a3 3 0 0 1 2.824 -2.995l.176 -.005zm-3 11a1 1 0 0 0 0 2a2 2 0 0 1 1.995 1.85l.005 .15a1 1 0 0 0 2 0a4 4 0 0 0 -4 -4m0 -3a1 1 0 0 0 0 2a5 5 0 0 1 5 5a1 1 0 0 0 2 0a7 7 0 0 0 -7 -7m.01 6h-.01a1 1 0 0 0 -.117 1.993l.127 .007a1 1 0 0 0 0 -2m5.989 -13.001l4.001 4.001h-4z"
     id="path4"
     style="fill:#9e0f7f;fill-opacity:1" />
</svg>
